<?xml version="1.0" encoding="UTF-8"?>
<svg version="1.1" xmlns="http://www.w3.org/2000/svg" width="190" height="190">
<path d="M0 0 C42.9 0 85.8 0 130 0 C130 33 130 66 130 100 C126.7 100 123.4 100 120 100 C120 103.3 120 106.6 120 110 C110.1 110 100.2 110 90 110 C90 106.7 90 103.4 90 100 C86.7 100 83.4 100 80 100 C80 93.4 80 86.8 80 80 C83.3 80 86.6 80 90 80 C90 76.7 90 73.4 90 70 C99.9 70 109.8 70 120 70 C120 53.5 120 37 120 20 C103.5 20 87 20 70 20 C70 46.4 70 72.8 70 100 C66.7 100 63.4 100 60 100 C60 103.3 60 106.6 60 110 C50.1 110 40.2 110 30 110 C30 106.7 30 103.4 30 100 C26.7 100 23.4 100 20 100 C20 93.4 20 86.8 20 80 C23.3 80 26.6 80 30 80 C30 76.7 30 73.4 30 70 C39.9 70 49.8 70 60 70 C60 53.5 60 37 60 20 C43.5 20 27 20 10 20 C10 46.4 10 72.8 10 100 C6.7 100 3.4 100 0 100 C0 103.3 0 106.6 0 110 C-9.9 110 -19.8 110 -30 110 C-30 106.7 -30 103.4 -30 100 C-33.3 100 -36.6 100 -40 100 C-40 93.4 -40 86.8 -40 80 C-36.7 80 -33.4 80 -30 80 C-30 76.7 -30 73.4 -30 70 C-20.1 70 -10.2 70 0 70 C0 46.9 0 23.8 0 0 Z " fill="#5C2E78" transform="translate(50,40)"/>
</svg>
